<?xml version="1.0" encoding="UTF-8" standalone="no"?>
<svg width="260px" height="310px" viewBox="0 0 260 310" version="1.1" xmlns="http://www.w3.org/2000/svg" xmlns:xlink="http://www.w3.org/1999/xlink" xmlns:sketch="http://www.bohemiancoding.com/sketch/ns">
    <title>Slice 1</title>
    <description>Created with Sketch (http://www.bohemiancoding.com/sketch)</description>
    <defs></defs>
    <g id="Page 1" stroke="none" stroke-width="1" fill="none" fill-rule="evenodd">
        <g id="Slice 1" transform="translate(0.000000, 120.000000)" fill="#999999">
            <g id="Page 1">
                <path d="M31.9553073,64 C49.603737,64 63.9106145,49.6731129 63.9106145,32 C63.9106145,14.3268871 49.603737,0 31.9553073,0 C14.3068775,0 0,14.3268871 0,32 C0,49.6731129 14.3068775,64 31.9553073,64 L31.9553073,64 Z M31.9553073,64" id="Oval 1"></path>
                <path d="M150.335196,54.5454545 C162.769316,54.5454545 172.849162,44.4515113 172.849162,32 C172.849162,19.5484887 162.769316,9.45454545 150.335196,9.45454545 C137.901075,9.45454545 127.821229,19.5484887 127.821229,32 C127.821229,44.4515113 137.901075,54.5454545 150.335196,54.5454545 L150.335196,54.5454545 Z M150.335196,54.5454545" id="Oval 1 copy"></path>
                <path d="M249.106145,42.9090909 C255.122656,42.9090909 260,38.0249248 260,32 C260,25.9750752 255.122656,21.0909091 249.106145,21.0909091 C243.089635,21.0909091 238.212291,25.9750752 238.212291,32 C238.212291,38.0249248 243.089635,42.9090909 249.106145,42.9090909 L249.106145,42.9090909 Z M249.106145,42.9090909" id="Oval 1 copy 2"></path>
            </g>
        </g>
    </g>
</svg>
