<?xml version="1.0" encoding="UTF-8" standalone="no"?>
<svg width="1280px" height="338px" viewBox="0 0 1280 338" version="1.1" xmlns="http://www.w3.org/2000/svg" xmlns:xlink="http://www.w3.org/1999/xlink" xmlns:sketch="http://www.bohemiancoding.com/sketch/ns">
    <!-- Generator: Sketch 3.1.1 (8761) - http://www.bohemiancoding.com/sketch -->
    <title>Chart</title>
    <desc>Created with Sketch.</desc>
    <defs>
        <rect id="path-1" x="0" y="-0.193259554" width="1280" height="360"></rect>
    </defs>
    <g id="App" stroke="none" stroke-width="1" fill="none" fill-rule="evenodd" sketch:type="MSPage">
        <g id="Large-Desktop" sketch:type="MSArtboardGroup" transform="translate(0.000000, -140.000000)">
            <g id="Billboard" sketch:type="MSLayerGroup" transform="translate(0.000000, 64.000000)">
                <g id="Chart" transform="translate(0.000000, 54.000000)">
                    <mask id="mask-2" sketch:name="Rectangle 105" fill="white">
                        <use xlink:href="#path-1"></use>
                    </mask>
                    <use id="Rectangle-105" sketch:type="MSShapeGroup" xlink:href="#path-1"></use>
                    <path d="M-180.133887,326.833426 L-6.40906717e-06,222.866552 L149.853664,168.806737 L365.289801,121.976421 L528.419222,137.998674 C528.419222,137.998674 927.754533,98.4843724 941.765649,98.4843726 C955.776765,98.4843727 1313.01565,15.2187476 1313.01565,15.2187476 L1632.90199,321.450027 L1632.90199,359.80674 L-180.133887,359.80674 L-180.133887,326.833426 Z" id="Path-204" fill="#009688" sketch:type="MSShapeGroup" mask="url(#mask-2)"></path>
                    <path d="M-180.133887,344.506351 L-6.40906717e-06,246.806741 L149.853664,210.806741 C149.853664,210.806741 364.42693,172.806741 369.4309,172.806741 C371.870402,172.806741 574.43903,187.806741 584.845534,187.806741 C595.252038,187.806741 806.664087,172.806741 806.664087,172.806741 L1027.36721,149.882813 L1317.85159,96.5703133 L1632.90199,339.795877 L1632.90199,376.80674 L-177.794486,376.80674 L-180.133887,344.506351 Z" id="Path-203" fill="#00897B" sketch:type="MSShapeGroup" mask="url(#mask-2)"></path>
                    <path d="M-180.133887,327.506351 L-6.40906717e-06,258.868024 L152.975615,246.806737 L473.49594,204.806741 L910.570337,207.288686 C910.570337,207.288686 1005.13708,189.591954 1049.9219,182.085937 C1134.70644,167.875892 1300.31784,164.658551 1300.31784,164.658551 L1632.90199,322.122952 L1632.90199,353.077493 L-180.133887,353.077491 L-180.133887,327.506351 Z" id="Path-202" fill="#00796B" sketch:type="MSShapeGroup" mask="url(#mask-2)"></path>
                    <path d="M-38.2265689,306.999998 L40.5853711,276.364065 L258.081306,261.806738 L477.658542,287.806738 L693.073176,238.806742 L910.569111,282.806738 L1294.70477,192.921393 L1632.90199,322.122952 L1632.90199,359.80674 L-180.133887,328.179275 L-38.2265689,306.999998 Z" id="Path-201" fill="#00695C" sketch:type="MSShapeGroup" mask="url(#mask-2)"></path>
                    <path d="M-180.133887,327.774164 L-34.6718814,322.525479 L149.853664,322.525479 L259.098898,286.995907 L477.658542,319.80674 L583.804883,316.80674 L693.073176,281.80674 C693.073176,281.80674 911.609714,319.80674 911.609761,319.80674 C911.609809,319.806741 1021.9187,305.80674 1021.9187,305.80674 L1139.5122,262.80674 L1255.0244,307.80674 L1489.76827,283.765946 L1632.90199,322.525477 L1632.90199,360.479665 L-180.133887,360.479665 L-180.133887,327.774164 Z" id="Path-200" fill="#005449" sketch:type="MSShapeGroup" mask="url(#mask-2)"></path>
                </g>
            </g>
        </g>
    </g>
</svg>