<?xml version="1.0" encoding="UTF-8" standalone="no"?>
<svg width="1440px" height="937px" viewBox="0 0 1440 937" version="1.1" xmlns="http://www.w3.org/2000/svg" xmlns:xlink="http://www.w3.org/1999/xlink" xmlns:sketch="http://www.bohemiancoding.com/sketch/ns">
    <!-- Generator: Sketch 3.0.4 (8054) - http://www.bohemiancoding.com/sketch -->
    <title>green-chart</title>
    <desc>Created with Sketch.</desc>
    <defs>
        <path id="path-1" d="M-0.28125,968.184211 L656.839772,750.863158 L1064.70799,722.486842 L1498,627.000009 L1863,539.999999 L2015,257 L2534.54421,259.468421 L2534.54421,968.184211 L-0.28125,968.184211 Z"></path>
    </defs>
    <g id="Page-1" stroke="none" stroke-width="1" fill="none" fill-rule="evenodd" sketch:type="MSPage">
        <g id="gray-background" sketch:type="MSArtboardGroup" transform="translate(0.000000, -755.000000)">
            <g id="green-chart" sketch:type="MSLayerGroup" transform="translate(-943.000000, 723.000000)">
                <path d="M2501.3105,481.634211 L2468.0768,360.515789 L2437,0 L2016,256 L2501.3105,481.634211 Z" id="Path-126" fill="#27893A" sketch:type="MSShapeGroup"></path>
                <mask id="mask-2" sketch:name="Path 125" fill="white">
                    <use xlink:href="#path-1"></use>
                </mask>
                <use id="Path-125" fill="#45C95E" sketch:type="MSShapeGroup" xlink:href="#path-1"></use>
                <path d="M656.839772,750.863158 C656.839772,750.863158 2107.03789,842.221053 2424.26873,966.8 C2741.49957,1091.37895 2585.90539,881.671053 2585.90539,881.671053 L2199.1859,860.215789 L1616.0854,710.721053 L1066.21862,722.486842 L656.839772,750.863158 Z" id="Path-129" fill="#2FA345" sketch:type="MSShapeGroup"></path>
                <path d="M1497.99999,627 L2537.56546,671.271053 C2537.56546,671.271053 2854.7963,1057.46579 2419.73686,918.352632 C1984.67742,779.239474 1064.70799,722.486842 1064.70799,722.486842 L1497.99999,627 Z" id="Path-127" fill="#53E06E" sketch:type="MSShapeGroup"></path>
                <path d="M2016,255.999997 L2463.54493,519.7 L2483.18303,429.034211 L2483.18303,327.294737 L2463.54493,214.481579 L2227,128 L2016,255.999997 Z" id="Path-152" fill="#329D46" sketch:type="MSShapeGroup"></path>
                <path d="M1942,372 C1942,372 2418.22624,612.442105 2475.62991,620.055263 C2533.03359,627.668421 2605.54349,531.465789 2605.54349,531.465789 L2424.26873,461.563158 L2255,355.000001 L2014,256 L1942,372 Z" id="Path-153" fill="#3DB454" sketch:type="MSShapeGroup"></path>
                <path d="M2179,157 L2409,272 L2400,448 L2253,356 L2014,256 L2179,157 Z" id="Path-158" fill="#4FD068" sketch:type="MSShapeGroup"></path>
                <path d="M1942,372 L2396,544 L2394,611 L1863,540 L1942,372 Z" id="Path-159" fill="#239A3A" sketch:type="MSShapeGroup"></path>
            </g>
        </g>
    </g>
</svg>