<?xml version="1.0" encoding="utf-8"?>
<!-- Generator: Adobe Illustrator 16.0.0, SVG Export Plug-In . SVG Version: 6.00 Build 0)  -->
<!DOCTYPE svg PUBLIC "-//W3C//DTD SVG 1.1//EN" "http://www.w3.org/Graphics/SVG/1.1/DTD/svg11.dtd">
<svg version="1.1" id="Layer_1" xmlns="http://www.w3.org/2000/svg" xmlns:xlink="http://www.w3.org/1999/xlink" x="0px" y="0px"
	 width="1440px" height="385.652px" viewBox="0 0 1440 385.652" enable-background="new 0 0 1440 385.652" xml:space="preserve">
<g enable-background="new    ">
	<g>
		<defs>
			<rect id="SVGID_1_" x="34" y="48.272" width="1369.969" height="315.02"/>
		</defs>
		<clipPath id="SVGID_2_">
			<use xlink:href="#SVGID_1_"  overflow="visible"/>
		</clipPath>
		<g clip-path="url(#SVGID_2_)">
			<defs>
				<rect id="SVGID_3_" x="-614.354" y="-1217.3" width="2637.373" height="1875.465"/>
			</defs>
			<clipPath id="SVGID_4_">
				<use xlink:href="#SVGID_3_"  overflow="visible"/>
			</clipPath>
			<g clip-path="url(#SVGID_4_)">
				<defs>
					<path id="SVGID_5_" d="M1292.792,203.455c1.236-31.658,21.32-56.487,54.999-56.487c29.045,0,50.672,20.794,50.672,51.21
						c0,1.242,0,3.413-0.307,5.276H1292.792z M1400.938,208.73c0.616,0,1.543-0.621,1.853-1.241c0.927-1.551,1.235-7.139,1.235-9.31
						c0-33.52-23.481-56.796-56.234-56.796c-37.694,0-60.869,28.553-60.869,64.556c0,36.623,23.175,65.796,60.869,65.796
						c20.703,0,37.387-8.69,45.111-14.587c0.617-0.621,1.236-1.242,0.617-2.171l-1.234-1.862c-0.309-0.621-1.237-1.243-2.473-0.311
						c-6.797,5.587-22.555,13.347-42.021,13.347c-33.679,0-54.07-25.141-54.999-57.419H1400.938z M1240.267,266.458
						c0,1.241,0.927,2.173,2.161,2.173h1.237c1.234,0,2.162-0.932,2.162-2.173V53.549c0-1.241-0.928-2.173-2.162-2.173h-1.237
						c-1.234,0-2.161,0.932-2.161,2.173V266.458z M1083.612,205.938c0,38.173,30.897,65.796,66.122,65.796
						c30.59,0,49.746-22.035,49.746-22.035c0.618-0.621,0.309-1.241-0.31-1.862l-1.544-1.553c-0.619-0.621-1.545-0.621-2.472,0.311
						c0,0-17.922,19.553-45.421,19.553c-32.136,0-60.871-25.141-60.871-60.211c0-34.45,27.809-58.97,60.871-58.97
						c27.189,0,42.949,14.897,42.949,14.897c0.926,0.932,2.16,1.241,3.089,0.312l1.235-1.241c0.619-0.621,0.927-1.553,0-2.484
						c0,0-17.921-17.069-47.273-17.069C1113.583,141.382,1083.612,168.383,1083.612,205.938z M1001.73,266.149l-43.566,93.419
						c-0.617,1.551-0.308,1.862,0.619,2.482l1.545,0.93c1.234,0.622,1.854,0.311,2.473-0.93l100.728-216.014
						c0.616-1.242,0.616-2.171-0.31-2.483l-2.162-0.93c-1.236-0.621-1.855,0.309-2.163,0.93l-54.382,116.698l-58.088-116.698
						c-0.309-0.621-0.926-1.551-2.164-0.93l-2.16,0.93c-0.929,0.312-0.929,1.241-0.312,2.483L1001.73,266.149z M806.146,205.938
						c0,38.173,30.899,65.796,66.122,65.796c30.59,0,49.746-22.035,49.746-22.035c0.619-0.621,0.31-1.241-0.308-1.862l-1.546-1.553
						c-0.618-0.621-1.545-0.621-2.472,0.311c0,0-17.921,19.553-45.421,19.553c-32.134,0-60.869-25.141-60.869-60.211
						c0-34.45,27.808-58.97,60.869-58.97c27.192,0,42.949,14.897,42.949,14.897c0.927,0.932,2.162,1.241,3.091,0.312l1.234-1.241
						c0.618-0.621,0.927-1.553,0-2.484c0,0-17.922-17.069-47.274-17.069C836.117,141.382,806.146,168.383,806.146,205.938z
						 M658.762,144.174V95.757h45.729c12.669,0,23.483,10.553,23.483,23.588s-10.813,24.829-23.483,24.829H658.762z
						 M610.251,262.734c0,3.103,2.472,5.897,5.871,5.897h36.769c3.09,0,5.871-2.794,5.871-5.897v-79.143h21.319l41.096,82.246
						c0.617,1.241,2.473,2.794,4.944,2.794h41.094c5.252,0,7.416-4.967,5.252-9l-42.331-78.833
						c26.881-10.862,45.729-33.829,45.729-62.382c0-36.935-30.279-67.04-67.358-67.04h-92.385c-3.399,0-5.871,2.794-5.871,5.897
						V262.734z M429.188,262.734c0,3.103,2.472,5.897,5.87,5.897h127.918c3.399,0,5.871-2.794,5.871-5.897v-33.829
						c0-3.105-2.472-5.897-5.871-5.897h-85.588v-41.899h70.448c3.09,0,5.871-2.483,5.871-5.897v-33.83
						c0-3.105-2.78-5.897-5.871-5.897h-70.448V96.999h85.588c3.399,0,5.871-2.792,5.871-5.897v-33.83
						c0-3.103-2.472-5.897-5.871-5.897H435.059c-3.398,0-5.87,2.794-5.87,5.897V262.734z M249.051,247.837
						c7.107,7.138,29.353,23.897,69.521,23.897c45.42,0,72.92-32.278,72.92-64.246c0-42.209-38.314-61.141-62.415-70.762
						c-24.41-9.932-33.679-18.623-33.679-30.105c0-8.38,8.343-15.829,19.466-15.829c18.848,0,41.403,17.07,44.184,18.621
						c2.781,2.173,8.343-0.621,10.505-4.033l15.758-23.899c1.236-2.173,1.854-7.759-1.854-9.932
						c-9.269-6.827-33.988-23.277-66.122-23.277c-47.583,0-71.375,31.036-71.375,61.763c0,37.242,33.371,58.038,59.942,68.59
						c21.011,8.38,31.825,18.312,31.825,31.347c0,10.862-8.96,18.621-21.32,18.621c-20.393,0-42.639-16.45-43.875-17.07
						c-2.163-1.551-8.033-2.171-10.505,1.862l-14.522,25.761C245.035,243.491,245.961,244.732,249.051,247.837z M34,185.453
						c0,47.176,39.241,86.281,87.75,86.281c48.819,0,88.37-39.105,88.37-86.281V57.272c0-3.103-2.781-5.897-5.871-5.897h-38.005
						c-3.399,0-5.871,2.794-5.871,5.897v125.698c0,21.726-16.375,39.105-38.623,39.105c-21.937,0-38.004-17.379-38.004-39.105
						V57.272c0-3.103-2.472-5.897-5.87-5.897H39.871c-3.09,0-5.871,2.794-5.871,5.897V185.453z"/>
				</defs>
				<clipPath id="SVGID_6_">
					<use xlink:href="#SVGID_5_"  overflow="visible"/>
				</clipPath>
				<g clip-path="url(#SVGID_6_)">
					<defs>
						<rect id="SVGID_7_" x="34" y="48.272" width="1369.969" height="315.02"/>
					</defs>
					<clipPath id="SVGID_8_">
						<use xlink:href="#SVGID_7_"  overflow="visible"/>
					</clipPath>
					<g clip-path="url(#SVGID_8_)" enable-background="new    ">
						<g>
							<defs>
								<rect id="SVGID_9_" x="34" y="48.272" width="1369.969" height="315.02"/>
							</defs>
							<clipPath id="SVGID_10_">
								<use xlink:href="#SVGID_9_"  overflow="visible"/>
							</clipPath>
							<g clip-path="url(#SVGID_10_)">
								<defs>
									<rect id="SVGID_11_" x="34" y="48.272" width="1369.969" height="315.02"/>
								</defs>
								<clipPath id="SVGID_12_">
									<use xlink:href="#SVGID_11_"  overflow="visible"/>
								</clipPath>
								
									<rect x="24.842" y="39.115" clip-path="url(#SVGID_12_)" fill-rule="evenodd" clip-rule="evenodd" fill="#FFFFFF" width="1388.341" height="333.335"/>
							</g>
							<g clip-path="url(#SVGID_10_)">
								<defs>
									<path id="SVGID_13_" d="M-35.597-87.259L58.84,33.953l77.267-8.659l94.438-8.657c0,0,73.695,9.919,77.864,8.657
										c24.448-7.396,85.254,34.632,85.254,34.632L505.27-0.679l94.438,43.291l128.778-25.974l52.93,53.246l7.167,119.914
										l-351.994,8.658H118.936l-120.192-86.58L-27.012-17.995L-35.597-87.259z"/>
								</defs>
								<clipPath id="SVGID_14_">
									<use xlink:href="#SVGID_13_"  overflow="visible"/>
								</clipPath>
								<g clip-path="url(#SVGID_14_)">
									<defs>
										<rect id="SVGID_15_" x="34" y="48.272" width="1369.969" height="315.02"/>
									</defs>
									<clipPath id="SVGID_16_">
										<use xlink:href="#SVGID_15_"  overflow="visible"/>
									</clipPath>
									
										<rect x="-44.755" y="-96.417" clip-path="url(#SVGID_16_)" fill-rule="evenodd" clip-rule="evenodd" fill="#FFFFFF" width="842.494" height="304.031"/>
								</g>
							</g>
							<g clip-path="url(#SVGID_10_)">
								<defs>
									<path id="SVGID_17_" d="M-35.597-24.988L58.442,96.225l68.392,51.949l102.589-69.265l51.294,69.265l85.49-25.976
										l85.378,25.976h153.995c0,0,75.475,27.264,88.448,28.144s105.543-69.437,105.543-69.437l-14.462,136.531l-350.51,17.315
										l-350.509-86.58H-1.401L-27.048,44.277L-35.597-24.988z"/>
								</defs>
								<clipPath id="SVGID_18_">
									<use xlink:href="#SVGID_17_"  overflow="visible"/>
								</clipPath>
								<g clip-path="url(#SVGID_18_)">
									<defs>
										<rect id="SVGID_19_" x="34" y="48.272" width="1369.969" height="315.02"/>
									</defs>
									<clipPath id="SVGID_20_">
										<use xlink:href="#SVGID_19_"  overflow="visible"/>
									</clipPath>
									
										<rect x="-44.755" y="-34.146" clip-path="url(#SVGID_20_)" fill-rule="evenodd" clip-rule="evenodd" fill="#E5E5E5" width="853.483" height="304.031"/>
								</g>
							</g>
							<g clip-path="url(#SVGID_10_)">
								<defs>
									<polygon id="SVGID_21_" points="-35.597,73.914 76.476,160.494 145.445,160.494 154.066,177.811 231.655,177.811 
										326.486,221.1 369.592,221.1 455.802,229.758 610.981,247.075 705.812,229.758 766.16,229.758 817.886,273.049 
										438.56,359.629 85.097,273.049 -1.113,273.049 -26.977,143.178 									"/>
								</defs>
								<clipPath id="SVGID_22_">
									<use xlink:href="#SVGID_21_"  overflow="visible"/>
								</clipPath>
								<g clip-path="url(#SVGID_22_)">
									<defs>
										<rect id="SVGID_23_" x="34" y="48.272" width="1369.969" height="315.02"/>
									</defs>
									<clipPath id="SVGID_24_">
										<use xlink:href="#SVGID_23_"  overflow="visible"/>
									</clipPath>
									
										<rect x="-44.755" y="64.756" clip-path="url(#SVGID_24_)" fill-rule="evenodd" clip-rule="evenodd" fill="#C1C0C0" width="871.798" height="304.031"/>
								</g>
							</g>
						</g>
					</g>
				</g>
			</g>
		</g>
	</g>
</g>
</svg>
